# xmcd
#
# Track frame offsets:
#   150
#   27232
#   47495
#   73807
#   91099
#   112298
#   130856
#   157223
#   175231
#   190764
#   214161
#   232993
#   260075
#   276317
#   292502
#   318738
#
# Disc length: 4491 seconds
#
# Revision: 0
# Processed by: cddbd v1.5.1PL2 Copyright (c) Steve Scherf et al.
# Submitted via: GXTranscoder 2.0.1939
#
DISCID=ef118910
DTITLE=Dido - live in brixton academy
DYEAR=2005
DGENRE=Blues
TTITLE0=stoned
TTITLE1=here with me
TTITLE2=see you when your 40
TTITLE3=life for rent
TTITLE4=isabel
TTITLE5=honestly ok
TTITLE6=take my hand
TTITLE7=thank you
TTITLE8=marys in india
TTITLE9=sand in my shoes
TTITLE10=white flag
TTITLE11=see the sun
TTITLE12=life for rent ( studio version)
TTITLE13=marys in india ( studio version)
TTITLE14=stoned ( studio version)
TTITLE15=white flag ( studio version)
EXTD=
EXTT0=
EXTT1=
EXTT2=
EXTT3=
EXTT4=
EXTT5=
EXTT6=
EXTT7=
EXTT8=
EXTT9=
EXTT10=
EXTT11=
EXTT12=
EXTT13=
EXTT14=
EXTT15=
PLAYORDER=
